<svg width="16" height="16" viewBox="0 0 16 16" xmlns="http://www.w3.org/2000/svg">
<path d="M8.15747 16.0005C8.10449 16.0005 8.05151 16.0005 7.99817 16.0002C6.74402 16.0033 5.58521 15.9714 4.45825 15.9028C3.42505 15.8399 2.48193 15.4829 1.73071 14.8703C1.00586 14.2793 0.510864 13.4801 0.259522 12.4952C0.0407715 11.6378 0.0291748 10.7961 0.0180664 9.98202C0.0100097 9.39791 0.00170898 8.70577 0 8.00191C0.00170898 7.29513 0.0100097 6.60299 0.0180664 6.01888C0.0291748 5.20492 0.0407715 4.36324 0.259522 3.5057C0.510864 2.52083 1.00586 1.72164 1.73071 1.13057C2.48193 0.518022 3.42505 0.160966 4.45837 0.0980997C5.58533 0.0296182 6.74438 -0.00236423 8.00122 0.000687535C9.25574 -0.00199801 10.4142 0.0296182 11.5411 0.0980997C12.5743 0.160966 13.5175 0.518022 14.2687 1.13057C14.9937 1.72164 15.4885 2.52083 15.7399 3.5057C15.9586 4.36312 15.9702 5.20492 15.9813 6.01888C15.9894 6.60299 15.9978 7.29513 15.9994 7.99898V8.00191C15.9978 8.70577 15.9894 9.39791 15.9813 9.98202C15.9702 10.796 15.9587 11.6377 15.7399 12.4952C15.4885 13.4801 14.9937 14.2793 14.2687 14.8703C13.5175 15.4829 12.5743 15.8399 11.5411 15.9028C10.4619 15.9685 9.35327 16.0005 8.15747 16.0005ZM7.99817 14.7502C9.23193 14.7531 10.3647 14.722 11.4652 14.6551C12.2465 14.6076 12.9238 14.3541 13.4788 13.9016C13.9917 13.4832 14.345 12.9061 14.5287 12.1861C14.7108 11.4724 14.7213 10.706 14.7314 9.96493C14.7394 9.38473 14.7477 8.69747 14.7494 8.00045C14.7477 7.30331 14.7394 6.61617 14.7314 6.03597C14.7213 5.29488 14.7108 4.52852 14.5287 3.81466C14.345 3.09468 13.9917 2.51754 13.4788 2.0992C12.9238 1.64681 12.2465 1.39327 11.4652 1.34578C10.3647 1.27876 9.23193 1.24788 8.0011 1.25057C6.76758 1.24764 5.63464 1.27876 4.53418 1.34578C3.75293 1.39327 3.07556 1.64681 2.52063 2.0992C2.00769 2.51754 1.65442 3.09468 1.4707 3.81466C1.28857 4.52852 1.27808 5.29476 1.26794 6.03597C1.26001 6.61666 1.25171 7.30428 1.25 8.00191C1.25171 8.6965 1.26001 9.38424 1.26794 9.96493C1.27808 10.706 1.28857 11.4724 1.4707 12.1861C1.65442 12.9061 2.00769 13.4832 2.52063 13.9016C3.07556 14.354 3.75293 14.6075 4.53418 14.655C5.63464 14.722 6.76782 14.7533 7.99817 14.7502ZM7.96838 11.9067C5.81458 11.9067 4.06213 10.1544 4.06213 8.00045C4.06213 5.84652 5.81458 4.0942 7.96838 4.0942C10.1223 4.0942 11.8746 5.84652 11.8746 8.00045C11.8746 10.1544 10.1223 11.9067 7.96838 11.9067ZM7.96838 5.3442C6.50378 5.3442 5.31213 6.53585 5.31213 8.00045C5.31213 9.46505 6.50378 10.6567 7.96838 10.6567C9.43311 10.6567 10.6246 9.46505 10.6246 8.00045C10.6246 6.53585 9.43311 5.3442 7.96838 5.3442ZM12.3121 2.8442C11.7944 2.8442 11.3746 3.26387 11.3746 3.7817C11.3746 4.29952 11.7944 4.7192 12.3121 4.7192C12.83 4.7192 13.2496 4.29952 13.2496 3.7817C13.2496 3.26387 12.83 2.8442 12.3121 2.8442Z"/>
</svg>
