<svg width="70" height="69" viewBox="0 0 70 69" fill="none" xmlns="http://www.w3.org/2000/svg">
<path d="M35.379 24.4607H9.13121C8.56492 24.4607 8.10596 24.9132 8.10596 25.4713C8.10596 26.0295 8.56492 26.4819 9.13121 26.4819H35.3792C35.9454 26.4819 36.4044 26.0294 36.4044 25.4713C36.4044 24.9132 35.9454 24.4607 35.379 24.4607Z" fill="#D43329"/>
<path d="M35.379 31.5625H9.13121C8.56492 31.5625 8.10596 32.015 8.10596 32.5731C8.10596 33.1312 8.56492 33.5837 9.13121 33.5837H35.3792C35.9454 33.5837 36.4044 33.1312 36.4044 32.5731C36.4044 32.015 35.9454 31.5625 35.379 31.5625Z" fill="#D43329"/>
<path d="M35.379 38.6638H9.13121C8.56492 38.6638 8.10596 39.1164 8.10596 39.6744C8.10596 40.2325 8.56492 40.685 9.13121 40.685H35.3792C35.9454 40.685 36.4044 40.2325 36.4044 39.6744C36.4044 39.1164 35.9454 38.6638 35.379 38.6638Z" fill="#D43329"/>
<path d="M36.4044 46.7762C36.4044 46.218 35.9454 45.7656 35.3792 45.7656H9.13121C8.56492 45.7656 8.10596 46.2182 8.10596 46.7762C8.10596 47.3343 8.56492 47.7868 9.13121 47.7868H35.3792C35.9454 47.7868 36.4044 47.3344 36.4044 46.7762Z" fill="#D43329"/>
<path d="M9.13121 56.1731C8.56492 56.1731 8.10596 56.6256 8.10596 57.1837C8.10596 57.7418 8.56492 58.1943 9.13121 58.1943H22.2888C22.855 58.1943 23.314 57.7418 23.314 57.1837C23.314 56.6256 22.855 56.1731 22.2888 56.1731H9.13121Z" fill="#D43329"/>
<path d="M47.1944 12.5133V9.23394C47.1944 7.98466 46.1634 6.96826 44.8959 6.96826H23.8457C22.5784 6.96826 21.5474 7.98466 21.5474 9.23394V12.5133C21.5474 13.7626 22.5784 14.7789 23.8457 14.7789H25.6234C26.1896 14.7789 26.6486 14.3263 26.6486 13.7683C26.6486 13.2101 26.1896 12.7577 25.6234 12.7577H23.8457C23.7092 12.7577 23.598 12.6481 23.598 12.5135V9.23394C23.598 9.09931 23.7092 8.98961 23.8457 8.98961H44.8959C45.0326 8.98961 45.1438 9.09918 45.1438 9.23394V12.5133C45.1438 12.648 45.0326 12.7575 44.8959 12.7575H30.4167C29.8504 12.7575 29.3915 13.2101 29.3915 13.7681C29.3915 14.3263 29.8504 14.7787 30.4167 14.7787H44.8961C46.1634 14.779 47.1944 13.7626 47.1944 12.5133Z" fill="#D43329"/>
<path d="M54.8607 61.6278C54.2944 61.6278 53.8355 62.0803 53.8355 62.6384V63.9994C53.8355 65.642 52.4796 66.9787 50.8129 66.9787H5.45479C3.78832 66.9787 2.43234 65.6422 2.43234 63.9994V15.421C2.43234 15.2022 2.45832 14.9877 2.50467 14.7789H11.8402C13.7893 14.7789 15.375 13.2159 15.375 11.2947V2.09264C15.5867 2.04696 15.8043 2.02135 16.0262 2.02135H50.8127C52.4793 2.02135 53.8353 3.35782 53.8353 5.00061V18.4559C53.8353 19.0141 54.2943 19.4665 54.8606 19.4665C55.4269 19.4665 55.8858 19.0139 55.8858 18.4559V5.00048C55.886 2.24331 53.6101 0 50.8129 0H16.0263C14.6713 0 13.3972 0.520195 12.4391 1.46463L1.86756 11.8851C0.909434 12.8296 0.381836 14.0853 0.381836 15.4211V63.9995C0.381836 66.7568 2.65752 69 5.45479 69H50.8129C53.6101 69 55.886 66.7567 55.886 63.9995V62.6385C55.886 62.0803 55.427 61.6278 54.8607 61.6278ZM13.3245 3.45054V11.2947C13.3245 12.1014 12.6586 12.7577 11.8402 12.7577H3.88238L13.3245 3.45054Z" fill="#D43329"/>
<path d="M68.9035 36.1171C69.6232 35.0758 69.8094 33.7913 69.4144 32.593C69.0195 31.3946 68.1028 30.4634 66.8996 30.0381C66.1015 29.7559 65.569 29.0335 65.5435 28.198C65.5048 26.9386 64.8895 25.7915 63.8552 25.0508C62.8212 24.3103 61.524 24.088 60.2974 24.4409C59.4828 24.6751 58.6219 24.3991 58.1029 23.7381C57.3207 22.7415 56.1389 22.1699 54.8606 22.1699C53.5824 22.1699 52.4005 22.7415 51.6182 23.7381C51.0992 24.3992 50.2377 24.6748 49.4238 24.4409C48.1971 24.0878 46.9 24.3103 45.8657 25.0508C44.8316 25.7915 44.2165 26.9385 44.1777 28.1979C44.1521 29.0334 43.6197 29.7556 42.8214 30.0379C41.6183 30.4633 40.7016 31.3946 40.3068 32.5928C39.9118 33.7912 40.098 35.0758 40.8177 36.117C41.2951 36.8079 41.2951 37.7006 40.8177 38.3914C40.098 39.4327 39.9118 40.7172 40.3068 41.9155C40.7016 43.1139 41.6183 44.0451 42.8214 44.4705C43.6197 44.7529 44.1522 45.4751 44.1777 46.3106C44.2134 47.4691 44.7519 48.5576 45.6556 49.2968C46.2518 49.7846 46.9681 50.0899 47.7177 50.1919V59.3934C47.7177 60.1698 48.145 60.8874 48.8325 61.266C49.5193 61.6443 50.3635 61.6274 51.0347 61.22L54.7951 58.9382C54.8564 58.9008 54.8929 58.9177 54.9266 58.9382L58.6868 61.22C59.3577 61.627 60.2017 61.6445 60.8891 61.2658C61.5768 60.8871 62.0039 60.1695 62.0039 59.3933V50.1916C62.7532 50.0897 63.4695 49.7845 64.0657 49.2968C64.9696 48.5576 65.5083 47.4692 65.5439 46.3105C65.5694 45.4749 66.1019 44.7526 66.9 44.4704C68.1033 44.0451 69.02 43.1137 69.4149 41.9154C69.8098 40.717 69.6236 39.4326 68.9039 38.3913C68.426 37.7007 68.426 36.808 68.9035 36.1171ZM59.7616 59.4988L56.0012 57.2169C55.3022 56.7928 54.4195 56.7922 53.7198 57.2169L49.9595 59.4987C49.8739 59.55 49.7682 59.4908 49.7682 59.3933V50C50.4732 49.9195 51.1721 50.2023 51.6182 50.7706C52.4006 51.767 53.5824 52.3386 54.8607 52.3386C56.1389 52.3386 57.3207 51.767 58.1029 50.7706C58.5491 50.2021 59.2482 49.9195 59.953 50V59.3933C59.953 59.4915 59.8459 59.5501 59.7616 59.4988ZM67.2089 39.5298C67.5687 40.0502 67.6617 40.6921 67.4643 41.291C67.2669 41.8899 66.8087 42.3554 66.2073 42.5681C64.6101 43.1327 63.5451 44.5778 63.4938 46.2496C63.4757 46.8373 63.2136 47.3671 62.756 47.7414C62.2415 48.1623 61.5448 48.3211 60.8718 48.1275C59.2431 47.6591 57.5195 48.2111 56.481 49.5337C56.0901 50.0316 55.4993 50.3173 54.8605 50.3173C54.2217 50.3173 53.6309 50.0318 53.2398 49.5337C52.447 48.5235 51.2546 47.9629 50.0101 47.9629C49.6248 47.9629 49.2343 48.0166 48.8493 48.1274C48.1699 48.3225 47.4752 48.1589 46.9648 47.7413C46.5072 47.3669 46.2451 46.8372 46.2272 46.2496C46.1758 44.5778 45.1108 43.1327 43.5135 42.5679C42.9122 42.3553 42.4542 41.8899 42.2566 41.291C42.0592 40.6921 42.1522 40.0501 42.512 39.5296C43.4673 38.1473 43.4673 36.3613 42.512 34.979C42.1522 34.4585 42.0592 33.8165 42.2566 33.2175C42.4541 32.6186 42.9122 32.1531 43.5135 31.9406C45.1108 31.3758 46.1758 29.9307 46.2272 28.2589C46.2465 27.6294 46.5538 27.0561 47.0708 26.6861C47.5874 26.3159 48.2355 26.2048 48.8492 26.3811C50.4775 26.8497 52.2016 26.2975 53.2398 24.9749C53.6308 24.4768 54.2214 24.1911 54.8605 24.1911C55.4993 24.1911 56.09 24.4767 56.481 24.9748C57.5194 26.2975 59.2426 26.8495 60.8717 26.3811C61.485 26.2045 62.1331 26.3157 62.65 26.6859C63.1669 27.056 63.4746 27.6294 63.4937 28.2588C63.5451 29.9305 64.6101 31.3758 66.2073 31.9404C66.8087 32.153 67.2667 32.6184 67.4643 33.2173C67.6617 33.8162 67.5687 34.4584 67.2089 34.9787C66.2534 36.3611 66.2534 38.1475 67.2089 39.5298Z" fill="#D43329"/>
<path d="M54.8604 28.7837C50.122 28.7837 46.2671 32.5835 46.2671 37.2542C46.2671 41.925 50.122 45.7248 54.8604 45.7248C59.5987 45.7248 63.4536 41.925 63.4536 37.2542C63.4536 32.5835 59.5987 28.7837 54.8604 28.7837ZM54.8604 43.7036C51.2527 43.7036 48.3176 40.8104 48.3176 37.2544C48.3176 33.6983 51.2527 30.805 54.8604 30.805C58.4681 30.805 61.4031 33.6982 61.4031 37.2544C61.4031 40.8106 58.468 43.7036 54.8604 43.7036Z" fill="#D43329"/>
</svg>
