<svg width="63" height="69" viewBox="0 0 63 69" fill="none" xmlns="http://www.w3.org/2000/svg">
<path d="M61.7488 0H57.4277C56.8695 0 56.4169 0.452543 56.4169 1.01074V2.16056H6.58396V1.01074C6.58396 0.452543 6.13141 0 5.57321 0H1.25195C0.693754 0 0.241211 0.452543 0.241211 1.01074V67.9893C0.241211 68.5475 0.693754 69 1.25195 69H5.57308C6.13128 69 6.58382 68.5475 6.58382 67.9893V65.7592H56.4166V67.9893C56.4166 68.5475 56.8692 69 57.4274 69H61.7485C62.3067 69 62.7593 68.5475 62.7593 67.9893V1.01074C62.7595 0.452543 62.307 0 61.7488 0ZM21.8472 63.7378H10.9051V52.7956H15.3654V55.0257C15.3654 55.5838 15.818 56.0365 16.3762 56.0365C16.9344 56.0365 17.3869 55.584 17.3869 55.0257V52.7956H21.8472V63.7378ZM39.132 51.7848V63.7377H23.8687V51.7848V48.4744H30.4896V50.7045C30.4896 51.2627 30.9422 51.7152 31.5004 51.7152C32.0586 51.7152 32.5111 51.2627 32.5111 50.7045V48.4744H39.132V51.7848ZM52.0957 63.7377H41.1535V52.7955H45.6138V55.0256C45.6138 55.5838 46.0664 56.0364 46.6246 56.0364C47.1828 56.0364 47.6353 55.5838 47.6353 55.0256V52.7955H52.0957V63.7377ZM56.4166 63.7377H54.1171V51.7848C54.1171 51.2266 53.6646 50.774 53.1064 50.774H41.1535V47.4636C41.1535 46.9054 40.701 46.4529 40.1428 46.4529H22.858C22.2998 46.4529 21.8472 46.9054 21.8472 47.4636V50.774H9.89434C9.33614 50.774 8.8836 51.2266 8.8836 51.7848V63.7377H6.58396V62.5879C6.58396 62.0297 6.13141 61.5771 5.57321 61.5771C5.01501 61.5771 4.56247 62.0297 4.56247 62.5879V66.9785H2.2627V2.02148H4.56234V58.2671C4.56234 58.8253 5.01488 59.2779 5.57308 59.2779C6.13128 59.2779 6.58382 58.8253 6.58382 58.2671V43.0728H56.4166V63.7377ZM14.2155 36.591C14.7737 36.591 15.2262 36.1385 15.2262 35.5803V34.4305H17.526V41.0514H10.9051V34.4305H13.2047V35.5803C13.2047 36.1385 13.6573 36.591 14.2155 36.591ZM23.9384 34.9706C24.4966 34.9706 24.9491 34.5181 24.9491 33.9599V32.2699H28.3292V41.0514H19.5476V33.4197V32.2699H22.9277V33.9599C22.9277 34.5181 23.3802 34.9706 23.9384 34.9706ZM35.8216 33.3502C36.3798 33.3502 36.8324 32.8976 36.8324 32.3394V30.1093H41.2927V31.2592V41.0514H30.3505V31.2592V30.1093H34.8109V32.3394C34.8109 32.8976 35.2634 33.3502 35.8216 33.3502ZM47.7049 34.9706C48.2631 34.9706 48.7156 34.5181 48.7156 33.9599V32.2699H52.0957V41.0514H43.3141V32.2699H46.6941V33.9599C46.6941 34.5181 47.1467 34.9706 47.7049 34.9706ZM56.4168 41.0514H54.1171V31.2592C54.1171 30.701 53.6646 30.2484 53.1064 30.2484H43.3141V29.0986C43.3141 28.5404 42.8615 28.0879 42.3033 28.0879H29.3398C28.7816 28.0879 28.3291 28.5404 28.3291 29.0986V30.2484H18.5369C17.9787 30.2484 17.5261 30.701 17.5261 31.2592V32.409H9.89434C9.33614 32.409 8.8836 32.8615 8.8836 33.4197V41.0514H6.58396V24.7078H56.4168V41.0514ZM17.4566 13.3646C18.0148 13.3646 18.4673 12.912 18.4673 12.3538V9.58359H24.0079V10.7334V22.6862H10.9052V9.58359H16.4458V12.354C16.4458 12.9122 16.8982 13.3646 17.4566 13.3646ZM31.5004 14.9851C32.0586 14.9851 32.5111 14.5326 32.5111 13.9744V11.7442H36.9714V22.6862H26.0294V11.7442H30.4896V13.9743C30.4896 14.5326 30.9422 14.9851 31.5004 14.9851ZM47.7049 16.6056C48.2631 16.6056 48.7156 16.153 48.7156 15.5948V13.9048H52.0957V22.6863H43.3141V13.9048H46.6941V15.5948C46.6941 16.153 47.1467 16.6056 47.7049 16.6056ZM58.4384 66.9785V9.65313C58.4384 9.09493 57.9859 8.64238 57.4277 8.64238C56.8695 8.64238 56.4169 9.09493 56.4169 9.65313V22.6862H54.1173V12.894C54.1173 12.3358 53.6647 11.8832 53.1065 11.8832H42.3035C41.7453 11.8832 41.2927 12.3358 41.2927 12.894V22.6862H38.9931V10.7334C38.9931 10.1752 38.5405 9.72267 37.9823 9.72267H26.0296V8.57285C26.0296 8.01465 25.577 7.5621 25.0188 7.5621H9.89434C9.33614 7.5621 8.8836 8.01465 8.8836 8.57285V22.6863H6.58396V4.18205H56.4168V5.3316C56.4168 5.8898 56.8693 6.34234 57.4275 6.34234C57.9857 6.34234 58.4383 5.8898 58.4383 5.3316V2.02148H60.7379V66.9785H58.4384Z" fill="#D43329"/>
</svg>
