<svg width="90" height="67" viewBox="0 0 90 67" fill="none" xmlns="http://www.w3.org/2000/svg">
<path d="M6.83301 14.937H20.737C21.465 14.937 22.0553 14.3535 22.0553 13.6333C22.0553 12.9131 21.465 12.3296 20.737 12.3296H6.83301C6.10492 12.3296 5.51465 12.9131 5.51465 13.6333C5.51465 14.3535 6.10475 14.937 6.83301 14.937Z" fill="#D43329"/>
<path d="M20.26 21.2134H14.7676C14.0395 21.2134 13.4492 21.7969 13.4492 22.5171C13.4492 23.2373 14.0395 23.8208 14.7676 23.8208H20.26C20.9881 23.8208 21.5784 23.2373 21.5784 22.5171C21.5784 21.7969 20.9881 21.2134 20.26 21.2134Z" fill="#D43329"/>
<path d="M1.31836 30.2542H14.7677C15.4958 30.2542 16.0861 29.6706 16.0861 28.9504C16.0861 28.2303 15.4958 27.6467 14.7677 27.6467H1.31836C0.590273 27.6467 0 28.2303 0 28.9504C0 29.6706 0.590273 30.2542 1.31836 30.2542Z" fill="#D43329"/>
<path d="M22.0553 53.3667C22.0553 52.6465 21.465 52.063 20.737 52.063H6.83301C6.10492 52.063 5.51465 52.6465 5.51465 53.3667C5.51465 54.0869 6.10492 54.6704 6.83301 54.6704H20.737C21.465 54.6704 22.0553 54.0869 22.0553 53.3667Z" fill="#D43329"/>
<path d="M20.26 43.1794H14.7676C14.0395 43.1794 13.4492 43.763 13.4492 44.4832C13.4492 45.2033 14.0395 45.7869 14.7676 45.7869H20.26C20.9881 45.7869 21.5784 45.2033 21.5784 44.4832C21.5784 43.763 20.9881 43.1794 20.26 43.1794Z" fill="#D43329"/>
<path d="M16.0861 38.0496C16.0861 37.3294 15.4958 36.7458 14.7677 36.7458H1.31836C0.590273 36.7458 0 37.3294 0 38.0496C0 38.7697 0.590273 39.3533 1.31836 39.3533H14.7677C15.4958 39.3533 16.0861 38.7697 16.0861 38.0496Z" fill="#D43329"/>
<path d="M56.1675 17.8259C56.8957 17.8259 57.4858 17.2424 57.4858 16.5222V14.5322C57.4858 13.8121 56.8957 13.2285 56.1675 13.2285C55.4392 13.2285 54.8491 13.8121 54.8491 14.5322V16.5222C54.8491 17.2424 55.4392 17.8259 56.1675 17.8259Z" fill="#D43329"/>
<path d="M70.6624 19.1659C70.1473 18.6569 69.3127 18.6569 68.7979 19.1659L67.3749 20.573C66.8601 21.0824 66.8601 21.9077 67.3749 22.4168C67.8901 22.926 68.7246 22.9258 69.2394 22.4168L70.6624 21.0097C71.177 20.5006 71.177 19.6752 70.6624 19.1659Z" fill="#D43329"/>
<path d="M73.3354 32.1963C72.6072 32.1963 72.0171 32.7798 72.0171 33.5C72.0171 34.2202 72.6072 34.8037 73.3354 34.8037H75.3476C76.0759 34.8037 76.666 34.2202 76.666 33.5C76.666 32.7798 76.0759 32.1963 75.3476 32.1963H73.3354Z" fill="#D43329"/>
<path d="M69.2394 44.5831C68.7244 44.0742 67.8898 44.0742 67.3749 44.5831C66.8601 45.0925 66.8601 45.9178 67.3749 46.4269L68.7979 47.8341C69.3131 48.3432 70.1475 48.3431 70.6624 47.8341C71.1772 47.3248 71.1772 46.4994 70.6624 45.9903L69.2394 44.5831Z" fill="#D43329"/>
<path d="M54.8491 50.4778V52.4676C54.8491 53.1878 55.4392 53.7713 56.1675 53.7713C56.8957 53.7713 57.4858 53.1878 57.4858 52.4676V50.4778C57.4858 49.7576 56.8957 49.1741 56.1675 49.1741C55.4392 49.1741 54.8491 49.7578 54.8491 50.4778Z" fill="#D43329"/>
<path d="M43.0952 44.5831L41.6723 45.9903C41.1574 46.4996 41.1574 47.3249 41.6723 47.8341C42.1873 48.3432 43.0219 48.3431 43.5366 47.8341L44.9596 46.4269C45.4744 45.9176 45.4744 45.0923 44.9596 44.5831C44.4449 44.0742 43.6101 44.0742 43.0952 44.5831Z" fill="#D43329"/>
<path d="M36.9863 32.1963C36.2582 32.1963 35.668 32.7798 35.668 33.5C35.668 34.2202 36.2582 34.8037 36.9863 34.8037H38.9987C39.7268 34.8037 40.317 34.2202 40.317 33.5C40.317 32.7798 39.7268 32.1963 38.9987 32.1963H36.9863Z" fill="#D43329"/>
<path d="M44.9596 20.573L43.5366 19.1659C43.0217 18.6569 42.187 18.6569 41.6723 19.1659C41.1574 19.6752 41.1574 20.5006 41.6723 21.0097L43.0952 22.4168C43.6103 22.926 44.4449 22.9258 44.9596 22.4168C45.4744 21.9077 45.4744 21.0824 44.9596 20.573Z" fill="#D43329"/>
<path d="M63.2567 33.5C63.2567 32.7798 62.6666 32.1963 61.9384 32.1963H57.4858V22.5168C57.4858 21.7967 56.8957 21.2131 56.1675 21.2131C55.4392 21.2131 54.8491 21.7967 54.8491 22.5168V33.5C54.8491 34.2202 55.4392 34.8037 56.1675 34.8037H61.9384C62.6665 34.8037 63.2567 34.2202 63.2567 33.5Z" fill="#D43329"/>
<path d="M81.1651 33.285C81.892 33.2414 82.4454 32.6234 82.4012 31.9048C81.5626 18.224 70.0391 7.50732 56.1668 7.50732C41.6732 7.50732 29.8818 19.1677 29.8818 33.5004C29.8818 47.8328 41.6732 59.4932 56.1668 59.4932C69.1516 59.4932 80.2312 50.0853 82.1587 37.3898C82.2668 36.6778 81.7707 36.0139 81.0505 35.907C80.3323 35.8005 79.6592 36.2905 79.5511 37.0028C77.8197 48.4084 67.8606 56.886 56.1668 56.886C43.1271 56.886 32.5186 46.3953 32.5186 33.5005C32.5186 20.6058 43.1271 10.1149 56.1668 10.1149C68.6474 10.1149 79.0148 19.7556 79.7693 32.063C79.8132 32.7812 80.4376 33.3267 81.1651 33.285Z" fill="#D43329"/>
<path d="M56.167 0.0432129C51.5297 0.0432129 46.9863 0.994574 42.8044 2.77371H19.5435C18.8154 2.77371 18.2251 3.35725 18.2251 4.07742C18.2251 4.79759 18.8154 5.38113 19.5435 5.38113H37.8446C35.3701 6.95601 33.0922 8.8556 31.0837 11.0486C30.595 11.5821 30.6361 12.4066 31.1758 12.89C31.7156 13.3734 32.549 13.3325 33.038 12.7989C38.9446 6.34952 47.3749 2.65063 56.167 2.65063C73.3686 2.65063 87.3632 16.4896 87.3632 33.5001C87.3632 50.5104 73.3688 64.3495 56.167 64.3495C38.9654 64.3495 24.9709 50.5106 24.9709 33.5001C24.9709 27.5433 26.6916 21.7618 29.9467 16.7803C30.3419 16.1755 30.1664 15.3686 29.5549 14.9778C28.9434 14.5872 28.1274 14.7604 27.7321 15.3653C24.2006 20.7693 22.3342 27.0401 22.3342 33.5001C22.3342 45.2797 28.5227 55.6559 37.853 61.619H19.5436C18.8155 61.619 18.2253 62.2026 18.2253 62.9228C18.2253 63.6429 18.8155 64.2265 19.5436 64.2265H42.7863C46.8926 65.982 51.4166 66.957 56.1671 66.957C74.8225 66.957 89.9999 51.9483 89.9999 33.5001C89.9999 15.0519 74.8225 0.0432129 56.167 0.0432129Z" fill="#D43329"/>
</svg>
