<svg width="71" height="71" viewBox="0 0 71 71" fill="none" xmlns="http://www.w3.org/2000/svg">
<path d="M35.5 0.34388C28.5468 0.343858 21.7497 2.40572 15.9682 6.26873C10.1868 10.1317 5.68075 15.6224 3.01986 22.0464C0.358969 28.4703 -0.337231 35.5391 1.0193 42.3587C2.37583 49.1784 5.72416 55.4426 10.6409 60.3593C13.9052 63.6248 17.7808 66.2154 22.0464 67.983C26.312 69.7505 30.8841 70.6605 35.5014 70.661C40.1187 70.6614 44.6909 69.7523 48.9568 67.9855C53.2228 66.2187 57.0989 63.6289 60.3638 60.364C63.6288 57.099 66.2186 53.2229 67.9854 48.957C69.7521 44.691 70.6613 40.1188 70.6608 35.5015C70.6604 30.8842 69.7504 26.3122 67.9828 22.0466C66.2153 17.781 63.6247 13.9053 60.3592 10.641C57.1022 7.36617 53.2281 4.76987 48.961 3.00236C44.6939 1.23486 40.1187 0.331265 35.5 0.34388ZM68.3054 34.9195L64.7969 37.5509L61.2738 34.9085C60.9753 21.7252 50.7321 10.9553 37.7681 9.8198L39.9532 6.90635C40.1053 6.7035 40.1875 6.4568 40.1875 6.20326C40.1875 5.94972 40.1053 5.70301 39.9532 5.50016L37.909 2.77461C46.0721 3.37596 53.7156 7.00658 59.3394 12.9538C64.9632 18.9011 68.1611 26.7356 68.3054 34.9195ZM35.5 58.9376C22.5765 58.9376 12.0625 48.4237 12.0625 35.5001C12.0625 22.5766 22.5765 12.0626 35.5 12.0626C48.4235 12.0626 58.9375 22.5766 58.9375 35.5001C58.9375 48.4237 48.4235 58.9376 35.5 58.9376ZM12.2981 12.2982C18.2962 6.26744 26.4146 2.8209 34.9193 2.69471L37.5508 6.20326L34.9084 9.72639C21.725 10.0248 10.9552 20.2681 9.81969 33.2321L6.90624 31.0469C6.70339 30.8948 6.45669 30.8126 6.20315 30.8126C5.94961 30.8126 5.7029 30.8948 5.50005 31.0469L2.77449 33.0911C3.33108 25.2368 6.71438 17.85 12.2981 12.2982ZM2.6946 36.0808L6.20314 33.4494L9.72627 36.0917C10.0247 49.2751 20.268 60.045 33.2319 61.1805L31.0468 64.0939C30.8947 64.2968 30.8125 64.5435 30.8125 64.797C30.8125 65.0506 30.8947 65.2973 31.0468 65.5001L33.091 68.2257C24.928 67.6243 17.2844 63.9937 11.6606 58.0464C6.03685 52.0991 2.83895 44.2647 2.6946 36.0808ZM58.7019 58.702C52.7038 64.7328 44.5855 68.1794 36.0807 68.3056L33.4492 64.797L36.0916 61.2739C49.275 60.9754 60.0449 50.7322 61.1803 37.7682L64.0938 39.9533C64.2966 40.1054 64.5434 40.1876 64.7969 40.1876C65.0504 40.1876 65.2971 40.1054 65.5 39.9533L68.2255 37.9091C67.6689 45.7635 64.2856 53.1502 58.7019 58.702Z" fill="#D43329"/>
</svg>
