<svg width="77" height="69" viewBox="0 0 77 69" fill="none" xmlns="http://www.w3.org/2000/svg">
<path d="M71.8655 33.6692C71.5752 33.6692 71.2968 33.5539 71.0915 33.3486C70.8862 33.1434 70.7709 32.8649 70.7709 32.5746V18.2694C70.7709 17.9791 70.6556 17.7007 70.4503 17.4954C70.245 17.2901 69.9666 17.1748 69.6763 17.1748H45.8612C45.5709 17.1748 45.2925 17.0595 45.0872 16.8542C44.8819 16.6489 44.7666 16.3705 44.7666 16.0802C44.7666 15.7899 44.8819 15.5115 45.0872 15.3062C45.2925 15.1009 45.5709 14.9856 45.8612 14.9856H69.6763C70.5472 14.9856 71.3824 15.3316 71.9983 15.9474C72.6141 16.5632 72.9601 17.3985 72.9601 18.2694V32.5746C72.9601 32.8649 72.8448 33.1434 72.6395 33.3486C72.4342 33.5539 72.1558 33.6692 71.8655 33.6692Z" fill="#D43329"/>
<path d="M69.6763 68.508H9.94642C7.35954 68.5051 4.87944 67.4762 3.05023 65.647C1.22103 63.8178 0.192106 61.3377 0.189209 58.7508V8.83727C0.189209 8.54697 0.304532 8.26855 0.509808 8.06327C0.715084 7.858 0.993499 7.74268 1.2838 7.74268C1.57411 7.74268 1.85252 7.858 2.0578 8.06327C2.26307 8.26855 2.3784 8.54697 2.3784 8.83727V58.7508C2.38072 60.7572 3.1788 62.6808 4.59758 64.0996C6.01636 65.5184 7.93997 66.3165 9.94642 66.3188H69.6763C69.9666 66.3188 70.245 66.2035 70.4503 65.9982C70.6555 65.7929 70.7709 65.5145 70.7709 65.2242V49.6361C70.7709 49.3458 70.8862 49.0674 71.0915 48.8621C71.2967 48.6568 71.5751 48.5415 71.8654 48.5415C72.1558 48.5415 72.4342 48.6568 72.6394 48.8621C72.8447 49.0674 72.96 49.3458 72.96 49.6361V65.2242C72.96 66.0951 72.6141 66.9304 71.9982 67.5462C71.3824 68.162 70.5472 68.508 69.6763 68.508Z" fill="#D43329"/>
<path d="M73.8978 50.7305H59.3298C56.7772 50.7305 54.3291 49.7165 52.5241 47.9115C50.7191 46.1065 49.7051 43.6584 49.7051 41.1057C49.7051 38.5531 50.7191 36.105 52.5241 34.3C54.3291 32.495 56.7772 31.481 59.3298 31.481H73.8978C74.6695 31.4818 75.4093 31.7885 75.9553 32.3339C76.5012 32.8792 76.8088 33.6187 76.8105 34.3904V47.8178C76.8097 48.59 76.5025 49.3304 75.9565 49.8764C75.4104 50.4225 74.67 50.7296 73.8978 50.7305ZM59.3298 33.6691C57.3578 33.6691 55.4665 34.4524 54.0721 35.8469C52.6777 37.2413 51.8943 39.1326 51.8943 41.1046C51.8943 43.0767 52.6777 44.9679 54.0721 46.3624C55.4665 47.7568 57.3578 48.5402 59.3298 48.5402H73.8978C74.0894 48.5399 74.2731 48.4638 74.4087 48.3284C74.5443 48.193 74.6208 48.0094 74.6213 47.8178V34.3904C74.621 34.1986 74.5447 34.0147 74.4091 33.8791C74.2735 33.7435 74.0896 33.6672 73.8978 33.6669L59.3298 33.6691Z" fill="#D43329"/>
<path d="M45.861 17.1747H8.53097C7.42752 17.1874 6.33254 16.9809 5.30943 16.5674C4.28633 16.1539 3.35543 15.5415 2.57067 14.7657C1.78592 13.9898 1.16288 13.066 0.737669 12.0477C0.312454 11.0294 0.0935059 9.93688 0.0935059 8.83336C0.0935059 7.72985 0.312454 6.6373 0.737669 5.619C1.16288 4.60069 1.78592 3.67688 2.57067 2.90106C3.35543 2.12523 4.28633 1.51283 5.30943 1.0993C6.33254 0.685781 7.42752 0.479362 8.53097 0.492002H44.762C45.3427 0.492002 45.8995 0.722648 46.31 1.1332C46.7206 1.54375 46.9512 2.10058 46.9512 2.68119V16.0801C46.9512 16.3697 46.8365 16.6474 46.6322 16.8526C46.4279 17.0577 46.1506 17.1736 45.861 17.1747ZM8.53097 2.68119C7.71615 2.67032 6.90728 2.82142 6.15134 3.12572C5.3954 3.43002 4.70743 3.88146 4.12739 4.45382C3.54734 5.02618 3.08677 5.70806 2.77242 6.45988C2.45806 7.2117 2.29619 8.01847 2.29619 8.83336C2.29619 9.64826 2.45806 10.455 2.77242 11.2068C3.08677 11.9587 3.54734 12.6406 4.12739 13.2129C4.70743 13.7853 5.3954 14.2367 6.15134 14.541C6.90728 14.8453 7.71615 14.9964 8.53097 14.9855H44.762V2.68119H8.53097Z" fill="#D43329"/>
<path d="M59.5248 45.446C58.7049 45.4451 57.9037 45.2012 57.2224 44.7451C56.5411 44.2889 56.0103 43.6411 55.6972 42.8833C55.384 42.1256 55.3025 41.2921 55.463 40.4881C55.6235 39.684 56.0187 38.9456 56.5988 38.3662C57.1788 37.7868 57.9177 37.3923 58.7218 37.2327C59.526 37.073 60.3595 37.1554 61.1169 37.4694C61.8743 37.7833 62.5216 38.3148 62.977 38.9965C63.4324 39.6783 63.6755 40.4798 63.6755 41.2996C63.6743 42.3997 63.2365 43.4543 62.4582 44.2318C61.6799 45.0093 60.6248 45.446 59.5248 45.446ZM59.5248 39.3425C59.1379 39.3434 58.7599 39.4589 58.4386 39.6745C58.1174 39.8901 57.8672 40.196 57.7197 40.5537C57.5723 40.9114 57.5341 41.3048 57.6101 41.6841C57.6862 42.0635 57.8729 42.4118 58.1468 42.6851C58.4207 42.9584 58.7694 43.1443 59.1489 43.2195C59.5285 43.2947 59.9217 43.2556 60.2791 43.1074C60.6365 42.9591 60.9419 42.7083 61.1567 42.3865C61.3716 42.0648 61.4863 41.6865 61.4863 41.2996C61.486 41.0423 61.435 40.7876 61.3363 40.55C61.2376 40.3124 61.093 40.0966 60.9109 39.9148C60.7287 39.7331 60.5126 39.589 60.2747 39.4908C60.0369 39.3926 59.7821 39.3422 59.5248 39.3425Z" fill="#D43329"/>
<path d="M31.6836 49.4346H26.1221V54H22.9512V49.4346H19.5146V46.8115H22.9512V44.5371H19.5146V41.9307H22.9512V29.8281H31.8662C34.4561 29.8281 36.5091 30.4867 38.0254 31.8037C39.5417 33.1208 40.2998 34.9027 40.2998 37.1494C40.2998 39.5068 39.5693 41.3275 38.1084 42.6113C36.6585 43.8841 34.5944 44.526 31.916 44.5371H26.1221V46.8115H31.6836V49.4346ZM26.1221 41.9307H31.8662C33.5817 41.9307 34.8877 41.5267 35.7842 40.7188C36.6807 39.9108 37.1289 38.7321 37.1289 37.1826C37.1289 35.777 36.6641 34.6426 35.7344 33.7793C34.8047 32.9049 33.5485 32.4622 31.9658 32.4512H26.1221V41.9307Z" fill="#D43329"/>
</svg>
