<?xml version="1.0" encoding="utf-8"?><svg viewBox="0 0 22 20" xmlns="http://www.w3.org/2000/svg" xmlns:xlink="http://www.w3.org/1999/xlink"><style>:root>svg{display:none}:root>svg:target{display:block}</style><svg viewBox="0 0 22 18" id="ic_email" xmlns="http://www.w3.org/2000/svg"><path d="M3 1h16c1.1 0 2 .9 2 2v12c0 1.1-.9 2-2 2H3c-1.1 0-2-.9-2-2V3c0-1.1.9-2 2-2z"/><path d="M21 3l-10 7L1 3"/></svg><svg viewBox="0 0 16 16" id="ic_instagram" xmlns="http://www.w3.org/2000/svg"><path d="M8.157 16h-.159a55.584 55.584 0 0 1-3.54-.097c-1.033-.063-1.976-.42-2.727-1.033-.725-.59-1.22-1.39-1.471-2.375-.22-.857-.23-1.699-.242-2.513A175.32 175.32 0 0 1 0 8.002c.002-.707.01-1.399.018-1.983.011-.814.023-1.656.242-2.513.25-.985.746-1.784 1.47-2.375C2.483.518 3.426.16 4.459.098 5.585.03 6.744-.002 8.001.001a55.97 55.97 0 0 1 3.54.097c1.033.063 1.976.42 2.728 1.033.725.59 1.22 1.39 1.47 2.375.22.857.231 1.699.242 2.513.008.584.017 1.276.018 1.98v.003c-.001.704-.01 1.396-.018 1.98-.01.814-.022 1.656-.241 2.513-.252.985-.746 1.784-1.471 2.375-.752.613-1.695.97-2.728 1.033-1.08.066-2.188.097-3.384.097zm-.159-1.25a54.578 54.578 0 0 0 3.467-.095c.781-.047 1.459-.3 2.014-.753.513-.419.866-.996 1.05-1.716.182-.714.192-1.48.202-2.221.008-.58.017-1.268.018-1.965-.001-.697-.01-1.384-.018-1.964-.01-.741-.02-1.507-.202-2.221-.184-.72-.537-1.297-1.05-1.716-.555-.452-1.232-.706-2.014-.753a54.61 54.61 0 0 0-3.464-.095 54.465 54.465 0 0 0-3.467.095c-.781.047-1.458.3-2.013.753-.513.419-.867.996-1.05 1.716-.182.714-.193 1.48-.203 2.221-.008.58-.016 1.268-.018 1.966.002.694.01 1.382.018 1.963.01.741.02 1.507.203 2.221.183.72.537 1.297 1.05 1.716.555.452 1.232.706 2.013.753 1.1.067 2.234.098 3.464.095zm-.03-2.843A3.91 3.91 0 0 1 4.062 8a3.91 3.91 0 0 1 3.906-3.906A3.91 3.91 0 0 1 11.875 8a3.91 3.91 0 0 1-3.907 3.907zm0-6.563A2.66 2.66 0 0 0 5.312 8a2.66 2.66 0 0 0 2.656 2.657A2.66 2.66 0 0 0 10.625 8a2.66 2.66 0 0 0-2.657-2.656zm4.344-2.5a.938.938 0 1 0 0 1.875.938.938 0 0 0 0-1.875z"/></svg><svg viewBox="0 0 20 20" id="ic_search" xmlns="http://www.w3.org/2000/svg"><path d="M9 17A8 8 0 1 0 9 1a8 8 0 0 0 0 16zM19 19l-4.35-4.35"/></svg><svg viewBox="0 0 16 16" id="ic_slider_arrow" xmlns="http://www.w3.org/2000/svg"><path d="M15 8H1M8 15L1 8l7-7"/></svg></svg>